<?xml version="1.0" encoding="utf-8"?>
<!-- Generator: Adobe Illustrator 18.1.1, SVG Export Plug-In . SVG Version: 6.00 Build 0)  -->
<!DOCTYPE svg PUBLIC "-//W3C//DTD SVG 1.1//EN" "https://www.w3.org/Graphics/SVG/1.1/DTD/svg11.dtd">
<svg version="1.1" id="Layer_1" xmlns="http://www.w3.org/2000/svg" xmlns:xlink="https://www.w3.org/1999/xlink" x="0px" y="0px"
	 viewBox="0 0 922 630" enable-background="new 0 0 922 630" xml:space="preserve" preserveAspectRatio="none">
<path opacity="0.3" fill-rule="evenodd" clip-rule="evenodd" d="M1.3,620.1c-0.2,3.6-0.2,9.4-0.2,9.4s388.3-5.8,401-5
	c12.7,0.8,258.9,2.5,268,3c9.1,0.5,202.9-3.3,210-3c7.1,0.3,36,1,36,1s0.1-3.3,0.2-9.1L1.3,620.1z"/>
<path fill-rule="evenodd" clip-rule="evenodd" fill="#FFFFFF" d="M917.1,181.6c0.9-21.7,4.1-108.3,4-119c-0.1-10.7-2-63-2-63
	s-371.4,4.2-398,5c-26.6,0.8-211.2-3.8-244-4s-273,6-273,6s-1.9,106.2-1,113c0.9,6.8-0.8,171.7,1,182s-4,136-3,147
	c1,11,4.1,121.8,3,133s-3,42-3,42s388.3-5.8,401-5c12.7,0.8,258.9,2.5,268,3c9.1,0.5,202.9-3.3,210-3c7.1,0.3,36,1,36,1
	s5.1-184.4,4-198C919,408,916.1,203.2,917.1,181.6z"/>
</svg>
