<?xml version="1.0" encoding="utf-8"?>
<!-- Generator: Adobe Illustrator 19.0.0, SVG Export Plug-In . SVG Version: 6.00 Build 0)  -->
<svg version="1.1" id="Layer_1" xmlns="http://www.w3.org/2000/svg" xmlns:xlink="https://www.w3.org/1999/xlink" x="0px" y="0px"
	 viewBox="0 0 136 68" style="enable-background:new 0 0 136 68;" xml:space="preserve">
<style type="text/css">
	.st0{opacity:0.5;fill:#2E1808;}
	.st1{opacity:0.5;fill:#95613D;}
	.st2{fill:#27150B;}
</style>
<g>
	<polygon class="st0" points="8.3,2.1 0,13.2 4.1,28.4 0,55.6 8.3,66.3 75,66.3 123.7,64.9 136,57.1 136,36.4 127.3,33.3 
		133.1,27.4 136,11 129.1,2.1 81.5,0.5 36.4,2.7 	"/>
	<polygon class="st1" points="75,66.3 8.3,66.3 0.2,55.9 0,57.3 8.3,68 75,68 123.7,66.6 136,58.9 136,57.1 123.7,64.9 	"/>
	<g>
		<polygon class="st2" points="8.3,4.8 36.4,5.4 81.5,3.2 129.1,4.8 135.5,13.1 136,10.6 129.1,1.6 81.5,0 36.4,2.2 8.3,1.6 0,12.7 
			0.6,15 		"/>
		<polygon class="st2" points="127.7,35.4 136,38.4 136,35.6 127.3,33.3 		"/>
	</g>
</g>
</svg>
